<svg id="SVGID" width="100%" xmlns="http://www.w3.org/2000/svg" style="max-width: 100%; width: 100%; height: 100%; position: absolute; top: 50%; left: 50%; transform: translate(-50%, -50%);" viewBox="-8 -8 1247.484375 305" role="graphics-document document" aria-roledescription="classDiagram" preserveAspectRatio="xMidYMid meet"><style>#SVGID{font-family:"trebuchet ms",verdana,arial,sans-serif;font-size:16px;fill:#000000;}#SVGID .error-icon{fill:#552222;}#SVGID .error-text{fill:#552222;stroke:#552222;}#SVGID .edge-thickness-normal{stroke-width:2px;}#SVGID .edge-thickness-thick{stroke-width:3.5px;}#SVGID .edge-pattern-solid{stroke-dasharray:0;}#SVGID .edge-pattern-dashed{stroke-dasharray:3;}#SVGID .edge-pattern-dotted{stroke-dasharray:2;}#SVGID .marker{fill:#666;stroke:#666;}#SVGID .marker.cross{stroke:#666;}#SVGID svg{font-family:"trebuchet ms",verdana,arial,sans-serif;font-size:16px;}#SVGID g.classGroup text{fill:#999;stroke:none;font-family:"trebuchet ms",verdana,arial,sans-serif;font-size:10px;}#SVGID g.classGroup text .title{font-weight:bolder;}#SVGID .nodeLabel,#SVGID .edgeLabel{color:#111111;}#SVGID .edgeLabel .label rect{fill:#eee;}#SVGID .label text{fill:#111111;}#SVGID .edgeLabel .label span{background:#eee;}#SVGID .classTitle{font-weight:bolder;}#SVGID .node rect,#SVGID .node circle,#SVGID .node ellipse,#SVGID .node polygon,#SVGID .node path{fill:#eee;stroke:#999;stroke-width:1px;}#SVGID .divider{stroke:#999;stroke-width:1;}#SVGID g.clickable{cursor:pointer;}#SVGID g.classGroup rect{fill:#eee;stroke:#999;}#SVGID g.classGroup line{stroke:#999;stroke-width:1;}#SVGID .classLabel .box{stroke:none;stroke-width:0;fill:#eee;opacity:0.5;}#SVGID .classLabel .label{fill:#999;font-size:10px;}#SVGID .relation{stroke:#666;stroke-width:1;fill:none;}#SVGID .dashed-line{stroke-dasharray:3;}#SVGID .dotted-line{stroke-dasharray:1 2;}#SVGID #compositionStart,#SVGID .composition{fill:#666!important;stroke:#666!important;stroke-width:1;}#SVGID #compositionEnd,#SVGID .composition{fill:#666!important;stroke:#666!important;stroke-width:1;}#SVGID #dependencyStart,#SVGID .dependency{fill:#666!important;stroke:#666!important;stroke-width:1;}#SVGID #dependencyStart,#SVGID .dependency{fill:#666!important;stroke:#666!important;stroke-width:1;}#SVGID #extensionStart,#SVGID .extension{fill:transparent!important;stroke:#666!important;stroke-width:1;}#SVGID #extensionEnd,#SVGID .extension{fill:transparent!important;stroke:#666!important;stroke-width:1;}#SVGID #aggregationStart,#SVGID .aggregation{fill:transparent!important;stroke:#666!important;stroke-width:1;}#SVGID #aggregationEnd,#SVGID .aggregation{fill:transparent!important;stroke:#666!important;stroke-width:1;}#SVGID #lollipopStart,#SVGID .lollipop{fill:#eee!important;stroke:#666!important;stroke-width:1;}#SVGID #lollipopEnd,#SVGID .lollipop{fill:#eee!important;stroke:#666!important;stroke-width:1;}#SVGID .edgeTerminals{font-size:11px;line-height:initial;}#SVGID .classTitleText{text-anchor:middle;font-size:18px;fill:#000000;}#SVGID :root{--mermaid-font-family:"trebuchet ms",verdana,arial,sans-serif;}</style><g><defs><marker id="SVGID_classDiagram-aggregationStart" class="marker aggregation classDiagram" refX="18" refY="7" markerWidth="190" markerHeight="240" orient="auto"><path d="M 18,7 L9,13 L1,7 L9,1 Z"/></marker></defs><defs><marker id="SVGID_classDiagram-aggregationEnd" class="marker aggregation classDiagram" refX="1" refY="7" markerWidth="20" markerHeight="28" orient="auto"><path d="M 18,7 L9,13 L1,7 L9,1 Z"/></marker></defs><defs><marker id="SVGID_classDiagram-extensionStart" class="marker extension classDiagram" refX="18" refY="7" markerWidth="190" markerHeight="240" orient="auto"><path d="M 1,7 L18,13 V 1 Z"/></marker></defs><defs><marker id="SVGID_classDiagram-extensionEnd" class="marker extension classDiagram" refX="1" refY="7" markerWidth="20" markerHeight="28" orient="auto"><path d="M 1,1 V 13 L18,7 Z"/></marker></defs><defs><marker id="SVGID_classDiagram-compositionStart" class="marker composition classDiagram" refX="18" refY="7" markerWidth="190" markerHeight="240" orient="auto"><path d="M 18,7 L9,13 L1,7 L9,1 Z"/></marker></defs><defs><marker id="SVGID_classDiagram-compositionEnd" class="marker composition classDiagram" refX="1" refY="7" markerWidth="20" markerHeight="28" orient="auto"><path d="M 18,7 L9,13 L1,7 L9,1 Z"/></marker></defs><defs><marker id="SVGID_classDiagram-dependencyStart" class="marker dependency classDiagram" refX="6" refY="7" markerWidth="190" markerHeight="240" orient="auto"><path d="M 5,7 L9,13 L1,7 L9,1 Z"/></marker></defs><defs><marker id="SVGID_classDiagram-dependencyEnd" class="marker dependency classDiagram" refX="13" refY="7" markerWidth="20" markerHeight="28" orient="auto"><path d="M 18,7 L9,13 L14,7 L9,1 Z"/></marker></defs><defs><marker id="SVGID_classDiagram-lollipopStart" class="marker lollipop classDiagram" refX="13" refY="7" markerWidth="190" markerHeight="240" orient="auto"><circle stroke="black" fill="transparent" cx="7" cy="7" r="6"/></marker></defs><defs><marker id="SVGID_classDiagram-lollipopEnd" class="marker lollipop classDiagram" refX="1" refY="7" markerWidth="190" markerHeight="240" orient="auto"><circle stroke="black" fill="transparent" cx="7" cy="7" r="6"/></marker></defs><g class="root"><g class="clusters"/><g class="edgePaths"><path d="M230.014,98.406L202.414,108.672C174.814,118.937,119.614,139.469,92.014,153.901C64.414,168.333,64.414,176.667,64.414,180.833L64.414,185" id="id_MediaItem_MusicItem_1" class="  edge-pattern-solid relation" style="fill:none" marker-start="url(#SVGID_classDiagram-extensionStart)"/><path d="M235.842,148.632L234.208,150.526C232.574,152.421,229.307,156.211,227.673,164.189C226.039,172.167,226.039,184.333,226.039,190.417L226.039,196.5" id="id_MediaItem_Song_2" class="  edge-pattern-solid relation" style="fill:none" marker-start="url(#SVGID_classDiagram-extensionStart)"/><path d="M368.865,148.632L370.499,150.526C372.133,152.421,375.4,156.211,377.034,164.189C378.668,172.167,378.668,184.333,378.668,190.417L378.668,196.5" id="id_MediaItem_Album_3" class="  edge-pattern-solid relation" style="fill:none" marker-start="url(#SVGID_classDiagram-extensionStart)"/><path d="M374.619,99.335L400.87,109.446C427.12,119.557,479.621,139.778,505.871,154.056C532.121,168.333,532.121,176.667,532.121,180.833L532.121,185" id="id_MediaItem_Podcast_4" class="  edge-pattern-solid relation" style="fill:none" marker-start="url(#SVGID_classDiagram-extensionStart)"/><path d="M686.113,100.5L686.113,110.417C686.113,120.333,686.113,140.167,686.113,156.167C686.113,172.167,686.113,184.333,686.113,190.417L686.113,196.5" id="id_User_Playlist_5" class="  edge-pattern-solid relation" style="fill:none"/></g><g class="edgeLabels"><g class="edgeLabel"><g class="label" transform="translate(0, 0)"><rect rx="0" ry="0" width="0" height="0"/><text style=""><tspan xml:space="preserve" dy="1em" x="0" class="row"/></text></g></g><g class="edgeLabel"><g class="label" transform="translate(0, 0)"><rect rx="0" ry="0" width="0" height="0"/><text style=""><tspan xml:space="preserve" dy="1em" x="0" class="row"/></text></g></g><g class="edgeLabel"><g class="label" transform="translate(0, 0)"><rect rx="0" ry="0" width="0" height="0"/><text style=""><tspan xml:space="preserve" dy="1em" x="0" class="row"/></text></g></g><g class="edgeLabel"><g class="label" transform="translate(0, 0)"><rect rx="0" ry="0" width="0" height="0"/><text style=""><tspan xml:space="preserve" dy="1em" x="0" class="row"/></text></g></g><g class="edgeLabel"><g class="label" transform="translate(0, 0)"><rect rx="0" ry="0" width="0" height="0"/><text style=""><tspan xml:space="preserve" dy="1em" x="0" class="row"/></text></g></g><g class="edgeTerminals" transform="translate(671.113280625, 117.99999946428574)"><g class="inner" transform="translate(-2.890625, -6)"><text style=""><tspan xml:space="preserve" dy="1em" x="0" class="row">1</tspan></text></g></g><g class="edgeTerminals" transform="translate(696.113280625, 173.99999946428574)"><g class="inner" transform="translate(-2.5234375, -6)"/><text style=""><tspan xml:space="preserve" dy="1em" x="0" class="row">*</tspan></text></g></g><g class="nodes"><g class="node default" id="classId-MediaItem-439" data-node="true" data-id="MediaItem" transform="translate(302.353515625, 71.5)"><rect style="" class="outer title-state" x="-55.46875" y="-63.5" width="110.9375" height="127"/><line class="divider" x1="-55.46875" x2="55.46875" y1="-32.5" y2="-32.5"/><line class="divider" x1="-55.46875" x2="55.46875" y1="52.5" y2="52.5"/><g class="label"><text style=""><tspan xml:space="preserve" dy="1em" x="0" class="title-row"/></text><text style="" class="classTitle" transform="translate( -39.34765625, -56)"><tspan xml:space="preserve" dy="1em" x="0" class="title-row">MediaItem</tspan></text><text style="" transform="translate( -47.96875, -21)"><tspan xml:space="preserve" dy="1em" x="0" class="title-row">- String title</tspan></text><text style="" transform="translate( -47.96875, 2)"><tspan xml:space="preserve" dy="1em" x="0" class="title-row">- int duration</tspan></text><text style="" transform="translate( -47.96875, 25)"><tspan xml:space="preserve" dy="1em" x="0" class="title-row">- int year</tspan></text></g></g><g class="node default" id="classId-MusicItem-440" data-node="true" data-id="MusicItem" transform="translate(64.4140625, 237)"><rect style="" class="outer title-state" x="-56.4140625" y="-52" width="112.828125" height="104"/><line class="divider" x1="-56.4140625" x2="56.4140625" y1="-21" y2="-21"/><line class="divider" x1="-56.4140625" x2="56.4140625" y1="41" y2="41"/><g class="label"><text style=""><tspan xml:space="preserve" dy="1em" x="0" class="title-row"/></text><text style="" class="classTitle" transform="translate( -38.109375, -44.5)"><tspan xml:space="preserve" dy="1em" x="0" class="title-row">MusicItem</tspan></text><text style="" transform="translate( -48.9140625, -9.5)"><tspan xml:space="preserve" dy="1em" x="0" class="title-row">- String artist</tspan></text><text style="" transform="translate( -48.9140625, 13.5)"><tspan xml:space="preserve" dy="1em" x="0" class="title-row">- String genre</tspan></text></g></g><g class="node default" id="classId-Song-441" data-node="true" data-id="Song" transform="translate(226.0390625, 237)"><rect style="" class="outer title-state" x="-55.2109375" y="-40.5" width="110.421875" height="81"/><line class="divider" x1="-55.2109375" x2="55.2109375" y1="-9.5" y2="-9.5"/><line class="divider" x1="-55.2109375" x2="55.2109375" y1="29.5" y2="29.5"/><g class="label"><text style=""><tspan xml:space="preserve" dy="1em" x="0" class="title-row"/></text><text style="" class="classTitle" transform="translate( -17.83984375, -33)"><tspan xml:space="preserve" dy="1em" x="0" class="title-row">Song</tspan></text><text style="" transform="translate( -47.7109375, 2)"><tspan xml:space="preserve" dy="1em" x="0" class="title-row">- String lyrics</tspan></text></g></g><g class="node default" id="classId-Album-442" data-node="true" data-id="Album" transform="translate(378.66796875, 237)"><rect style="" class="outer title-state" x="-47.41796875" y="-40.5" width="94.8359375" height="81"/><line class="divider" x1="-47.41796875" x2="47.41796875" y1="-9.5" y2="-9.5"/><line class="divider" x1="-47.41796875" x2="47.41796875" y1="29.5" y2="29.5"/><g class="label"><text style=""><tspan xml:space="preserve" dy="1em" x="0" class="title-row"/></text><text style="" class="classTitle" transform="translate( -24.3046875, -33)"><tspan xml:space="preserve" dy="1em" x="0" class="title-row">Album</tspan></text><text style="" transform="translate( -39.91796875, 2)"><tspan xml:space="preserve" dy="1em" x="0" class="title-row">- List songs</tspan></text></g></g><g class="node default" id="classId-Podcast-443" data-node="true" data-id="Podcast" transform="translate(532.12109375, 237)"><rect style="" class="outer title-state" x="-56.03515625" y="-52" width="112.0703125" height="104"/><line class="divider" x1="-56.03515625" x2="56.03515625" y1="-21" y2="-21"/><line class="divider" x1="-56.03515625" x2="56.03515625" y1="41" y2="41"/><g class="label"><text style=""><tspan xml:space="preserve" dy="1em" x="0" class="title-row"/></text><text style="" class="classTitle" transform="translate( -28.79296875, -44.5)"><tspan xml:space="preserve" dy="1em" x="0" class="title-row">Podcast</tspan></text><text style="" transform="translate( -48.53515625, -9.5)"><tspan xml:space="preserve" dy="1em" x="0" class="title-row">- String host</tspan></text><text style="" transform="translate( -48.53515625, 13.5)"><tspan xml:space="preserve" dy="1em" x="0" class="title-row">- int episodes</tspan></text></g></g><g class="node default" id="classId-User-444" data-node="true" data-id="User" transform="translate(686.11328125, 71.5)"><rect style="" class="outer title-state" x="-24.96484375" y="-29" width="49.9296875" height="58"/><line class="divider" x1="-24.96484375" x2="24.96484375" y1="2" y2="2"/><line class="divider" x1="-24.96484375" x2="24.96484375" y1="18" y2="18"/><g class="label"><text style=""><tspan xml:space="preserve" dy="1em" x="0" class="title-row"/></text><text style="" class="classTitle" transform="translate( -17.46484375, -21.5)"><tspan xml:space="preserve" dy="1em" x="0" class="title-row">User</tspan></text></g></g><g class="node default" id="classId-Playlist-445" data-node="true" data-id="Playlist" transform="translate(686.11328125, 237)"><rect style="" class="outer title-state" x="-47.95703125" y="-40.5" width="95.9140625" height="81"/><line class="divider" x1="-47.95703125" x2="47.95703125" y1="-9.5" y2="-9.5"/><line class="divider" x1="-47.95703125" x2="47.95703125" y1="29.5" y2="29.5"/><g class="label"><text style=""><tspan xml:space="preserve" dy="1em" x="0" class="title-row"/></text><text style="" class="classTitle" transform="translate( -27.27734375, -33)"><tspan xml:space="preserve" dy="1em" x="0" class="title-row">Playlist</tspan></text><text style="" transform="translate( -40.45703125, 2)"><tspan xml:space="preserve" dy="1em" x="0" class="title-row">- List items</tspan></text></g></g><g class="node default" id="classId-MusicLibrary-446" data-node="true" data-id="MusicLibrary" transform="translate(829.47265625, 71.5)"><rect style="" class="outer title-state" x="-68.39453125" y="-40.5" width="136.7890625" height="81"/><line class="divider" x1="-68.39453125" x2="68.39453125" y1="-9.5" y2="-9.5"/><line class="divider" x1="-68.39453125" x2="68.39453125" y1="29.5" y2="29.5"/><g class="label"><text style=""><tspan xml:space="preserve" dy="1em" x="0" class="title-row"/></text><text style="" class="classTitle" transform="translate( -47.921875, -33)"><tspan xml:space="preserve" dy="1em" x="0" class="title-row">MusicLibrary</tspan></text><text style="" transform="translate( -60.89453125, 2)"><tspan xml:space="preserve" dy="1em" x="0" class="title-row">- List musicItems</tspan></text></g></g><g class="node default" id="classId-PodcastLibrary-447" data-node="true" data-id="PodcastLibrary" transform="translate(1010.640625, 71.5)"><rect style="" class="outer title-state" x="-62.7734375" y="-40.5" width="125.546875" height="81"/><line class="divider" x1="-62.7734375" x2="62.7734375" y1="-9.5" y2="-9.5"/><line class="divider" x1="-62.7734375" x2="62.7734375" y1="29.5" y2="29.5"/><g class="label"><text style=""><tspan xml:space="preserve" dy="1em" x="0" class="title-row"/></text><text style="" class="classTitle" transform="translate( -55.2734375, -33)"><tspan xml:space="preserve" dy="1em" x="0" class="title-row">PodcastLibrary</tspan></text><text style="" transform="translate( -55.2734375, 2)"><tspan xml:space="preserve" dy="1em" x="0" class="title-row">- List podcasts</tspan></text></g></g><g class="node default" id="classId-MediaPlayer-448" data-node="true" data-id="MediaPlayer" transform="translate(1177.44921875, 71.5)"><rect style="" class="outer title-state" x="-54.03515625" y="-29" width="108.0703125" height="58"/><line class="divider" x1="-54.03515625" x2="54.03515625" y1="2" y2="2"/><line class="divider" x1="-54.03515625" x2="54.03515625" y1="18" y2="18"/><g class="label"><text style=""><tspan xml:space="preserve" dy="1em" x="0" class="title-row"/></text><text style="" class="classTitle" transform="translate( -46.53515625, -21.5)"><tspan xml:space="preserve" dy="1em" x="0" class="title-row">MediaPlayer</tspan></text></g></g></g></g></g></svg>